
<svg width="120px" height="19px" viewBox="0 0 120 19" version="1.1" xmlns="http://www.w3.org/2000/svg" xmlns:xlink="http://www.w3.org/1999/xlink">
    <!-- Generator: Sketch 49 (51002) - http://www.bohemiancoding.com/sketch -->
    <desc>Created with Sketch.</desc>
    <defs></defs>
    <g id="Page-1" stroke="none" stroke-width="1" fill="none" fill-rule="evenodd">
        <path d="M15.512,0.497 L11.292,10.051 C11.165,10.323 11.054,10.634 10.962,10.987 C10.87,11.34 10.792,11.737 10.728,12.186 C10.736,12.09 10.742,11.988 10.746,11.881 C10.75,11.773 10.752,11.614 10.752,11.407 C10.752,11.175 10.746,10.944 10.734,10.712 C10.722,10.48 10.704,10.257 10.68,10.041 L9.492,0.499 L2.625,0.499 L0,18.156 L5.059,18.156 L6.557,5.088 C6.557,5.584 6.566,6.042 6.581,6.462 C6.597,6.881 6.621,7.219 6.652,7.474 L8.02,18.156 L11.904,18.156 L16.399,7.57 C16.527,7.258 16.663,6.889 16.807,6.461 C16.951,6.033 17.09,5.576 17.226,5.088 L14.853,18.156 L19.863,18.156 L22.441,0.497 L15.512,0.497 Z" id="Shape" fill="#FFFFFF" fill-rule="nonzero"></path>
        <path d="M28.737,0.497 L20.093,18.156 L25.812,18.156 L26.699,16.046 L32.597,18.156 L37.919,18.156 L34.382,0.497 L28.737,0.497 Z M28.101,12.485 L30.799,5.951 L31.826,13.722 L28.101,12.485 Z" id="Shape" fill="#FFFFFF" fill-rule="nonzero"></path>
        <path d="M49.271,10.996 C49.087,11.946 48.454,13.011 47.859,13.499 C47.264,13.987 46.563,14.229 45.755,14.229 C44.812,14.229 44.098,13.912 43.615,13.276 C43.132,12.64 42.89,11.699 42.89,10.453 C42.89,8.622 43.268,7.146 44.024,6.023 C44.777,4.9 45.767,4.339 46.99,4.339 C47.829,4.339 48.487,4.59 48.963,5.094 C49.438,5.597 49.654,6.216 49.678,7.119 L54.949,7.119 C54.781,4.77 54.055,3.076 52.697,1.846 C51.337,0.616 49.443,0 47.013,0 C45.534,0 44.19,0.262 42.979,0.785 C41.768,1.309 40.724,2.078 39.845,3.093 C39.03,4.036 38.404,5.117 37.969,6.335 C37.533,7.554 37.315,8.819 37.315,10.129 C37.315,12.774 38.083,14.857 39.617,16.375 C41.151,17.893 43.257,18.652 45.934,18.652 C48.252,18.652 50.182,18.014 51.725,16.735 C53.268,15.457 54.443,13.296 54.619,10.996 L49.271,10.996 Z" id="Shape" fill="#FFFFFF" fill-rule="nonzero"></path>
        <polygon id="Shape" fill="#FFFFFF" fill-rule="nonzero" points="67.529 0.497 66.524 7.12 61.327 7.12 62.374 0.497 56.728 0.497 54.078 18.156 59.7 18.156 60.74 10.996 65.882 10.996 64.855 18.156 70.55 18.156 73.15 0.497"></polygon>
        <path d="M105.019,0.497 L103.935,0.497 L91.366,0.497 L90.353,7.126 L89.44,7.126 L90.453,0.497 L85.202,0.497 L83.848,9.5 C83.808,9.78 83.78,10.098 83.76,10.454 C83.74,10.809 83.729,11.19 83.729,11.598 C83.712,11.223 83.668,10.863 83.593,10.519 C83.516,10.175 83.405,9.84 83.261,9.513 L79.161,0.498 L74.005,0.498 L71.357,18.157 L76.584,18.157 L77.915,9.07 C77.947,8.855 77.971,8.62 77.987,8.369 C78.003,8.117 78.011,7.843 78.011,7.548 L78.011,7.067 C78.05,7.49 78.107,7.872 78.174,8.212 C78.242,8.551 78.311,8.81 78.382,8.985 L82.553,18.156 L87.757,18.156 L88.864,10.908 L89.776,10.908 L88.67,18.156 L102.911,18.156 L103.522,13.888 L94.855,13.888 L95.227,11.059 L102.443,11.059 L103.08,7.127 L100.325,7.127 L95.838,7.127 L96.234,4.705 L103.193,4.705 L108.204,4.729 L106.261,18.156 L111.883,18.156 L113.884,4.773 L118.618,4.78 L119.35,0.497 L105.019,0.497 Z" id="Shape" fill="#FFFFFF" fill-rule="nonzero"></path>
    </g>
</svg>